<svg height="512pt" viewBox="0 0 512 512" width="512pt" xmlns="http://www.w3.org/2000/svg" xmlns:xlink="http://www.w3.org/1999/xlink"><linearGradient id="a" gradientUnits="userSpaceOnUse" x1="0" x2="512" y1="256" y2="256"><stop offset="0" stop-color="#00f38d"/><stop offset="1" stop-color="#009eff"/></linearGradient><path d="m512 256c0 141.386719-114.613281 256-256 256s-256-114.613281-256-256 114.613281-256 256-256 256 114.613281 256 256zm0 0" fill="url(#a)"/><g fill="#fff"><path d="m361.816406 305.527344c0 10.328125-8.371094 18.699218-18.699218 18.699218-10.324219 0-18.695313-8.371093-18.695313-18.699218 0-10.324219 8.371094-18.695313 18.695313-18.695313 10.328124 0 18.699218 8.371094 18.699218 18.695313zm0 0"/><path d="m343.121094 232.378906c-40.359375 0-73.195313 32.835938-73.195313 73.199219v3.734375c0 20.167969 11.105469 43.214844 33.015625 68.5 15.417969 17.796875 30.699219 30.296875 31.339844 30.820312l8.839844 7.191407 8.839844-7.191407c.640624-.523437 15.917968-13.023437 31.339843-30.820312 21.90625-25.285156 33.015625-48.332031 33.015625-68.5v-3.734375c-.003906-40.363281-32.835937-73.199219-73.195312-73.199219zm45.191406 76.933594c0 23.058594-27.460938 53.425781-45.175781 69.84375-17.371094-16.195312-45.210938-46.953125-45.210938-69.84375v-3.734375c0-24.921875 20.273438-45.199219 45.191407-45.199219 24.921874 0 45.195312 20.277344 45.195312 45.199219zm0 0"/><path d="m380.429688 96.175781h-250.394532l-34.347656 114.722657v1.824218c0 11.15625 4.398438 21.566406 12.386719 29.320313 3.84375 3.730469 8.308593 6.636719 13.164062 8.632812v127.210938c0 20.621093 16.777344 37.394531 37.398438 37.394531h147.941406c-6.113281-5.761719-13.71875-13.378906-21.320313-22.148438-.804687-.929687-1.597656-1.855468-2.375-2.78125h-124.246093c-6.875 0-12.464844-5.589843-12.464844-12.464843v-25.480469h111.308594c-4.140625-8.484375-7.105469-16.800781-8.902344-24.929688h-102.40625v-74.542968c7.910156-1.6875 15.003906-5.617188 20.566406-11.101563 7.542969 7.433594 17.890625 12.027344 29.292969 12.027344 11.492188 0 21.917969-4.667969 29.476562-12.207031 7.65625 7.542968 18.160157 12.207031 29.730469 12.207031 2.273438 0 4.5-.1875 6.675781-.53125 9.246094-14.316406 22.167969-26.046875 37.421876-33.835937-1.097657-2.230469-1.714844-4.738282-1.714844-7.390626v-13.089843h-24.925782v12.464843c0 9.625-7.832031 17.453126-17.457031 17.453126-9.621093 0-17.453125-7.828126-17.453125-17.453126v-12.464843h-24.921875v13.089843c0 9.277344-7.554687 16.828126-16.832031 16.828126-9.066406 0-16.464844-7.214844-16.796875-16.203126v-13.714843h-24.996094v13.714843c-.332031 8.988282-7.726562 16.203126-16.792969 16.203126-8.882812 0-15.957031-6.308594-16.753906-14.628907l27.902344-93.195312h213.308594l27.886718 92.585937c-.214843 2.265625-.882812 4.398438-1.90625 6.316406 7.4375 3.902344 14.304688 8.746094 20.441407 14.375 4.089843-6.453124 6.46875-14.09375 6.46875-22.28125v-1.835937zm0 0"/></g></svg>